<svg id="visual" viewBox="0 0 900 600" width="900" height="600" xmlns="http://www.w3.org/2000/svg" xmlns:xlink="http://www.w3.org/1999/xlink" version="1.1"><g transform="translate(840.9438463327701 -3.5056032825583543)"><path d="M368 -673.3C424.2 -604.8 381 -399.9 439.7 -265C498.5 -130 659.2 -65 671.2 6.9C683.2 78.8 546.4 157.7 491 298.4C435.6 439.1 461.5 641.7 393.3 707C325 772.2 162.5 700.1 21.2 663.5C-120.2 626.8 -240.3 625.6 -293.1 551.4C-345.9 477.2 -331.3 330 -370.2 225.9C-409.1 121.9 -501.5 60.9 -536.1 -19.9C-570.6 -100.8 -547.3 -201.7 -528.8 -341.1C-510.3 -480.5 -496.6 -658.6 -409.3 -709.1C-322 -759.7 -161 -682.9 -2.6 -678.4C155.8 -673.9 311.7 -741.8 368 -673.3" fill="#EDEFF9"></path></g></svg>