<svg class="animated" id="freepik_stories-online" xmlns="http://www.w3.org/2000/svg" xmlns:xlink="http://www.w3.org/1999/xlink" viewBox="0 0 500 500" version="1.1" xmlns:svgjs="http://svgjs.com/svgjs"><style>svg#freepik_stories-online:not(.animated) .animable {opacity: 0;}svg#freepik_stories-online.animated #freepik--social-media-icons--inject-99 {animation: 1.5s Infinite  linear wind;animation-delay: 0s;}            @keyframes wind {                0% {                    transform: rotate( 0deg );                }                25% {                    transform: rotate( 1deg );                }                75% {                    transform: rotate( -1deg );                }            }        </style><g id="freepik--Shadow--inject-99" class="animable" style="transform-origin: 250px 416.24px;"><ellipse id="freepik--path--inject-99" cx="250" cy="416.24" rx="193.89" ry="11.32" style="fill: rgb(245, 245, 245); transform-origin: 250px 416.24px;" class="animable"></ellipse></g><g id="freepik--Smartphone--inject-99" class="animable" style="transform-origin: 267.634px 306.43px;"><path d="M391.78,203.48l-.95-.32a10.38,10.38,0,0,0-.81-8.72,10.11,10.11,0,0,0-7.18-4.73l-14.06-2.29.16-1L383,188.73a11.05,11.05,0,0,1,7.88,5.19A11.41,11.41,0,0,1,391.78,203.48Z" style="fill: rgb(38, 50, 56); transform-origin: 380.607px 194.95px;" id="elw080633sdi" class="animable"></path><g id="el1tpe5bu2mvl"><rect x="358.7" y="180.88" width="1" height="8.96" style="fill: rgb(38, 50, 56); transform-origin: 359.2px 185.36px; transform: rotate(-80.75deg);" class="animable"></rect></g><path d="M200,395.86l107.87,17.56a11.19,11.19,0,0,0,11.91-7.26l68.7-203.8a7.52,7.52,0,0,0-6-10.18L274.57,174.62a11.18,11.18,0,0,0-11.91,7.26L194,385.67A7.53,7.53,0,0,0,200,395.86Z" style="fill: rgb(38, 50, 56); transform-origin: 291.24px 294.02px;" id="eldp3uhz1jlwh" class="animable"></path><path d="M193.59,394.82l107.88,17.56a11.16,11.16,0,0,0,11.9-7.26l68.71-203.79a7.53,7.53,0,0,0-6-10.19L268.18,173.58a11.18,11.18,0,0,0-11.9,7.26l-68.71,203.8A7.52,7.52,0,0,0,193.59,394.82Z" style="fill: rgb(67, 94, 190); transform-origin: 284.825px 292.981px;" id="el619rg3oggv6" class="animable"></path><path d="M302.37,409.72a7.75,7.75,0,0,0,8.27-5.05l68.71-203.79a5.23,5.23,0,0,0-4.19-7.08L267.29,176.24a7.76,7.76,0,0,0-8.28,5l-68.7,203.79a5.22,5.22,0,0,0,4.18,7.08Z" style="fill: rgb(255, 255, 255); transform-origin: 284.828px 292.979px;" id="elri4zmbjwf8s" class="animable"></path><g style="clip-path: url(&quot;#freepik--clip-path--inject-99&quot;); transform-origin: 267.634px 306.43px;" id="elf9bag9sfteq" class="animable"><g id="elmrnz52g63kl"><path d="M374.45,264.29c-59.23-3.85-55.48-77.9-103-66.94-76.05,17.53-72.2-15.42-16.82-38.55s163.33-7,163.9,39.6C418.84,227.14,409.1,266.55,374.45,264.29Z" style="fill: rgb(67, 94, 190); opacity: 0.1; transform-origin: 316.085px 206.363px;" class="animable"></path></g><g id="el6seuv264dll"><path d="M376.73,245.11c-61-12.5-27.68-69.47-92.78-83.51-92.29-19.9-41.58-47.32,18.43-47.57s147.28,37.75,115.75,83.73C398.71,226.08,412.43,252.43,376.73,245.11Z" style="fill: rgb(67, 94, 190); opacity: 0.1; transform-origin: 329.039px 180.188px;" class="animable"></path></g><g id="eljn7erh6g84"><path d="M197,305.65c54.79-3.69,54.45,78.42,85,72.12,48.92-10.07,52,33,18.15,54.06s-119.4,1.61-127.84-60.36C167.12,333.28,171.34,307.37,197,305.65Z" style="fill: rgb(67, 94, 190); opacity: 0.1; transform-origin: 246.496px 372.768px;" class="animable"></path></g><g id="elbpg5mio9i3u"><path d="M154.47,334.66c59.23,3.8,60.39,68.9,107.94,57.9,76-17.58,66.23,78.52,10.87,101.7s-162.19-47-162.8-93.68C110.11,371.84,119.82,332.43,154.47,334.66Z" style="fill: rgb(67, 94, 190); opacity: 0.1; transform-origin: 213.788px 416.7px;" class="animable"></path></g></g><path d="M295.84,190.77,340.3,198a10.82,10.82,0,0,0,8.89-2.89l6-5.61-67.26-10.95,1.79,6.88A7.31,7.31,0,0,0,295.84,190.77Z" style="fill: rgb(67, 94, 190); transform-origin: 321.56px 188.322px;" id="eltgy811bdf6q" class="animable"></path></g><g id="freepik--Character--inject-99" class="animable" style="transform-origin: 215.006px 283.175px;"><polygon points="282.57 341.96 291 341.75 292.77 322.16 284.33 322.37 282.57 341.96" style="fill: rgb(255, 181, 115); transform-origin: 287.67px 332.06px;" id="el0h3ri4p0bmd9" class="animable"></polygon><path d="M291.42,341.34l-8.09-4.41a.73.73,0,0,0-.91.16l-5.05,5.79a1.23,1.23,0,0,0,.35,1.9c2.94,1.54,7.26,3.67,10.93,5.67,4.29,2.33,4.61,2.27,9.64,5,3,1.66,5.56-1,4.44-1.93-5.11-4.42-6.51-4.83-9.84-10.64A3.79,3.79,0,0,0,291.42,341.34Z" style="fill: rgb(38, 50, 56); transform-origin: 290.031px 346.41px;" id="ely9ky6rdscx" class="animable"></path><path d="M198.6,198.74c4.88,4,10,8,15.05,11.85a169.5,169.5,0,0,0,15.48,10.64c.66.41,1.3.76,2,1.1l1.64.88a5.64,5.64,0,0,0,2.35.49,16.16,16.16,0,0,0,6.92-2.17,51.24,51.24,0,0,0,7.39-5c1.19-1,2.4-2,3.57-3s2.34-2.15,3.39-3.17l5.05,3.83a51.26,51.26,0,0,1-2.94,4.33c-1,1.38-2.09,2.75-3.26,4.05a48,48,0,0,1-7.89,7.3,24.84,24.84,0,0,1-11.24,4.8,16,16,0,0,1-7.31-.71c-.31-.09-.6-.22-.9-.33s-.44-.19-.67-.29l-1.24-.56c-.83-.37-1.65-.75-2.42-1.16a139.41,139.41,0,0,1-17.4-10.77c-5.47-3.92-10.67-8-15.82-12.4Z" style="fill: rgb(255, 181, 115); transform-origin: 225.895px 216.778px;" id="elu5v2v8a1pq" class="animable"></path><path d="M183.26,207.8c3.09,7.46,17.53,11.52,17.53,11.52l8.67-13.13s-6.23-6.77-14.65-9.08C184.49,194.29,179.89,199.65,183.26,207.8Z" style="fill: rgb(67, 94, 190); transform-origin: 195.814px 207.835px;" id="ellfsowlty8g9" class="animable"></path><g id="elubiqtri5mwm"><path d="M191.33,205.86c-4.07,1-6.25,3-6.59,4.37,4.73,5.91,16,9.09,16,9.09l6.14-9.3C204.34,207.49,197.69,204.31,191.33,205.86Z" style="opacity: 0.2; transform-origin: 195.81px 212.386px;" class="animable"></path></g><path d="M255.4,211.15l5.74-7.11,5.73,7.09s-3.76,7-9.37,4.52Z" style="fill: rgb(255, 181, 115); transform-origin: 261.135px 210.111px;" id="el2fupow42gsb" class="animable"></path><polygon points="267.1 199.45 270.35 206.74 266.87 211.13 261.14 204.04 267.1 199.45" style="fill: rgb(255, 181, 115); transform-origin: 265.745px 205.29px;" id="el4ylz9c7ak57" class="animable"></polygon><g id="eld3uoludzjij"><polygon points="292.76 322.16 291.86 332.26 283.42 332.47 284.32 322.37 292.76 322.16" style="opacity: 0.2; transform-origin: 288.09px 327.315px;" class="animable"></polygon></g><path d="M150.25,220.86c23.43,23.7,38.23,54.39,42.27,60l37.82-24.64c-13.32-33.26-29-50.62-36.2-57.4a8.43,8.43,0,0,0-8.92-1.66l-1.57.65c-1.15.49-2.37,1-3.61,1.64-.7.33-1.39.68-2.09,1.05A166.07,166.07,0,0,0,161.87,211c-1,.71-2,1.45-2.9,2.19s-1.72,1.39-2.51,2.05C152.88,218.27,150.25,220.86,150.25,220.86Z" style="fill: rgb(67, 94, 190); transform-origin: 190.295px 238.703px;" id="elm8t5ji3xmi" class="animable"></path><g id="elz07ibv22h6k"><path d="M162.17,228.84A5.8,5.8,0,0,0,156,227c2.63,3,5.14,6,7.5,9A8.55,8.55,0,0,0,162.17,228.84Z" style="opacity: 0.2; transform-origin: 159.89px 231.372px;" class="animable"></path></g><g id="el2mgwzafcc9u"><path d="M202.09,217.57s0,0-.06-.06a15.07,15.07,0,0,0-1.35-1.56,15.52,15.52,0,0,0-9.11-4.51,11.13,11.13,0,0,0-6.91,1.32l-.18.11h0l0,0-.24.16a8.46,8.46,0,0,0-1.17.9c-4,3.71-4,10.23-.11,15.31,0,0,0,0,0,.06l.06.06a16.5,16.5,0,0,0,1.36,1.56c4.71,4.71,11.59,5.9,16.2,3.09h0l0,0a9,9,0,0,0,1.41-1.07c4-3.71,3.95-10.22.11-15.3A.16.16,0,0,0,202.09,217.57Zm.68,5.72-1.68,1a23,23,0,0,0-2.09-3.59l2.15-1.32A11.84,11.84,0,0,1,202.77,223.29Zm-20.5.32,1.68-1a22.22,22.22,0,0,0,2.09,3.59l-2.15,1.32A11.63,11.63,0,0,1,182.27,223.61Zm13.36-4.24.5.6-3.49,2.15-2.53-3.32,3-1.84A22.74,22.74,0,0,1,195.63,219.37Zm-6.83-2.29-2.14-2.8a3.46,3.46,0,0,1,.92,0,9,9,0,0,1,3.61,1.36Zm-3.69-1.84,2.13,2.8-2.39,1.47C184.39,217.73,184.45,216.21,185.11,215.24Zm3.44,4.51,2.54,3.32-3.49,2.15a20.82,20.82,0,0,1-2-3.63Zm-2.86,10c-.18-.17-.33-.35-.49-.52l2.15-1.32.64.75a25.29,25.29,0,0,0,2.34,2.3l-1.69,1A13.3,13.3,0,0,1,185.69,229.73Zm3.72-2.2-.51-.6,3.5-2.14,2.53,3.32-3,1.83A21.91,21.91,0,0,1,189.41,227.53Zm6.83,2.29,2.14,2.79a3.47,3.47,0,0,1-.92,0,9,9,0,0,1-3.61-1.36Zm3.69,1.84-2.14-2.79,2.4-1.48C200.65,229.17,200.59,230.7,199.93,231.66Zm-3.44-4.51L194,223.83l3.49-2.14a20.12,20.12,0,0,1,2,3.63Zm1.2-8.14-.64-.75a24,24,0,0,0-2.34-2.29l1.69-1a13.76,13.76,0,0,1,2.95,2.24c.17.17.33.35.49.52ZM194,213.89l-1.12.68a15.36,15.36,0,0,0-2.1-1.24c.31,0,.63,0,.94.06A12.07,12.07,0,0,1,194,213.89Zm-11.38,4.46a12.74,12.74,0,0,0,.53,2.2l-1.11.68A8.74,8.74,0,0,1,182.62,218.35ZM191,233l1.11-.69a16.28,16.28,0,0,0,2.12,1.25A11.78,11.78,0,0,1,191,233Zm11.38-4.47a13,13,0,0,0-.53-2.2l1.11-.68A8.74,8.74,0,0,1,202.42,228.55Z" style="fill: rgb(255, 255, 255); opacity: 0.3; transform-origin: 192.521px 223.427px;" class="animable"></path></g><path d="M166.46,181.65a11,11,0,0,0-.43-9.51c-3.3-6.43-10-9.45-16.81-9.85a7.72,7.72,0,0,1,.28,3.07,15.2,15.2,0,0,0-3.2.15c-9.3,1.4-15.8,8.38-19.13,16.65,6,.26,9.83,5,3.51,9.33,6.49.44,10.09,5.89,5.88,8.61,6.65,4.65,18.85,3.63,24.4-1.41C163.65,196.26,171.57,190.63,166.46,181.65Z" style="fill: rgb(38, 50, 56); transform-origin: 147.655px 182.688px;" id="el4f8yrqgwh52" class="animable"></path><path d="M151.81,191.94c4.39,4.52,11.58,13.34,10.21,19.14,4.63,1,10.41,1.8,16.69-2s2.46-7.32-.62-8.49c-6.66,2.38-9.3-2-10.92-6.67Z" style="fill: rgb(255, 181, 115); transform-origin: 166.951px 201.925px;" id="elm9hjgzms2fi" class="animable"></path><g id="elk522nc7gkme"><path d="M158.08,192.76l9.09,1.18a18.79,18.79,0,0,0,1.36,3.18c-2.41,1.11-7,.67-8.75-1.49A9.07,9.07,0,0,1,158.08,192.76Z" style="opacity: 0.2; transform-origin: 163.305px 195.234px;" class="animable"></path></g><path d="M145.43,192c7.37,4,11.48,6.7,17.35,5.39,8.84-2,11.05-12.76,5-18.87-5.43-5.5-16.56-11.09-23.71-5.91A11.42,11.42,0,0,0,145.43,192Z" style="fill: rgb(255, 181, 115); transform-origin: 155.25px 184.139px;" id="eld7kp0rdl93" class="animable"></path><path d="M150.46,194.74c.48-4.07-1.29-11.07-5.18-12.93,4.22-2.64,8.41-13,4.51-13.53s-12.35,4.35-12.51,13.23S141.81,194.09,150.46,194.74Z" style="fill: rgb(38, 50, 56); transform-origin: 144.308px 181.49px;" id="elek2slmmc6xd" class="animable"></path><path d="M149.91,198.83a7.39,7.39,0,0,0,5.41-1.36c2-1.51.9-3.76-1.42-4.6-2.09-.75-5.65-.87-6.81,1.25S147.54,198.48,149.91,198.83Z" style="fill: rgb(255, 181, 115); transform-origin: 151.534px 195.639px;" id="eljx3wrf2wqrk" class="animable"></path><path d="M205.61,272.36,224,295.51l48.88-21.3c6.35,13.76,7.81,56.37,7.81,56.37l14.28-.34s14.35-48.23.54-71.18c-13.28-22.07-65.17-2.81-65.17-2.81Z" style="fill: rgb(38, 50, 56); transform-origin: 253.56px 289.523px;" id="elsdistdou1me" class="animable"></path><g id="elupiah5314xl"><path d="M239.85,288.61l-8.5,3.7-6.18-15.94S234.64,282.53,239.85,288.61Z" style="opacity: 0.2; transform-origin: 232.51px 284.34px;" class="animable"></path></g><g id="elnhha041fa9l"><path d="M239.85,288.61l-8.5,3.7-6.18-15.94S234.64,282.53,239.85,288.61Z" style="opacity: 0.2; transform-origin: 232.51px 284.34px;" class="animable"></path></g><path d="M221.47,262S251,326.2,258.75,349.68c8.5,25.71,8.82,54.38,8.82,54.38l-17.7-2.89s-.36-15.45-11.08-39.58c-12.21-27.48-46.27-80.7-46.27-80.7Z" style="fill: rgb(38, 50, 56); transform-origin: 230.045px 333.03px;" id="elzsnu6dhlza" class="animable"></path><polygon points="296.77 330.52 279.75 330.94 279.61 325.44 298.64 324.68 296.77 330.52" style="fill: rgb(67, 94, 190); transform-origin: 289.125px 327.81px;" id="eltyqjbwecw4g" class="animable"></polygon><path d="M154.13,182.49c.57.36,1.23.35,1.47,0s0-1-.62-1.34-1.24-.34-1.47,0S153.55,182.13,154.13,182.49Z" style="fill: rgb(38, 50, 56); transform-origin: 154.56px 181.826px;" id="elizm874e5y4" class="animable"></path><path d="M158.2,176c.57.36,1.23.35,1.47,0s0-1-.62-1.34-1.24-.34-1.47,0S157.62,175.6,158.2,176Z" style="fill: rgb(38, 50, 56); transform-origin: 158.63px 175.336px;" id="el37ayliidtst" class="animable"></path><path d="M157.19,178.22a24.52,24.52,0,0,0,6.66.32c.32,1.61-1.2,3.08-1.2,3.08Z" style="fill: rgb(237, 137, 62); transform-origin: 160.542px 179.92px;" id="elpqbhuvujn3e" class="animable"></path><path d="M162.68,185a5.61,5.61,0,0,1-3.93,2.08.22.22,0,0,1-.21-.2.2.2,0,0,1,.2-.2,5.41,5.41,0,0,0,4.11-2.61.2.2,0,0,1,.28-.07.21.21,0,0,1,.06.28A8.3,8.3,0,0,1,162.68,185Z" style="fill: rgb(38, 50, 56); transform-origin: 160.88px 185.525px;" id="elfz1kpz73aku" class="animable"></path><path d="M150.76,183.19a.48.48,0,0,1-.16.12.42.42,0,0,1-.52-.23,4,4,0,0,1,.32-3.64.4.4,0,0,1,.65.47h0a3.19,3.19,0,0,0-.22,2.88A.41.41,0,0,1,150.76,183.19Z" style="fill: rgb(38, 50, 56); transform-origin: 150.455px 181.303px;" id="el1fbpzfwklrb" class="animable"></path><path d="M157.71,171.75a.43.43,0,0,1-.35.14,3.15,3.15,0,0,0-2.73,1,.4.4,0,0,1-.62-.51,4,4,0,0,1,3.43-1.24.4.4,0,0,1,.36.43A.49.49,0,0,1,157.71,171.75Z" style="fill: rgb(38, 50, 56); transform-origin: 155.861px 172.072px;" id="el5gh69osghtg" class="animable"></path><path d="M291.59,342.76a.23.23,0,0,1,0-.21.21.21,0,0,1,.19-.13c.44,0,4.24.12,4.87,1.12a.62.62,0,0,1,0,.62h0a1.12,1.12,0,0,1-.79.68c-1.21.27-3.17-1.18-4.24-2.06Zm4.63.93c-.45-.5-2.41-.76-3.89-.84,1.49,1.16,2.75,1.75,3.43,1.6a.75.75,0,0,0,.52-.45.25.25,0,0,0,0-.25Z" style="fill: rgb(67, 94, 190); transform-origin: 294.149px 343.646px;" id="elthsvgphwgt" class="animable"></path><path d="M291.59,342.76l0-.05a.23.23,0,0,1,0-.2c.06-.08,1.35-2,2.71-2.23a1.47,1.47,0,0,1,1.14.23h0c.45.31.46.63.38.85-.32.91-3,1.55-4.07,1.46A.22.22,0,0,1,291.59,342.76Zm3.76-1.78a.76.76,0,0,0-.16-.14h0a1,1,0,0,0-.83-.16,4.67,4.67,0,0,0-2.23,1.75c1.21-.05,3.1-.66,3.3-1.2A.23.23,0,0,0,295.35,341Zm-.05-.3h0Z" style="fill: rgb(67, 94, 190); transform-origin: 293.713px 341.538px;" id="elc6dubpydxer" class="animable"></path><path d="M163.52,229.35l-3.26,2.17c-1.12.76-2.22,1.54-3.32,2.34-2.19,1.58-4.34,3.22-6.44,4.9s-4.11,3.43-6,5.24c-1,.9-1.88,1.83-2.79,2.76-.47.46-.87,1-1.31,1.42l-.65.72c-.15.16-.11.12-.14.14l-.09.09a8.91,8.91,0,0,0-1,2.35,27.3,27.3,0,0,0-.8,3.52,78.35,78.35,0,0,0-.88,7.94c-.35,5.45-.47,11.12-.49,16.68l-6.29.82A110.77,110.77,0,0,1,127.24,263a71.17,71.17,0,0,1-.14-9.15,38.47,38.47,0,0,1,.59-4.92,18.78,18.78,0,0,1,1.93-5.64c.16-.27.31-.54.5-.81s.42-.61.5-.71l.71-.94c.48-.62.93-1.27,1.43-1.86,1-1.2,2-2.39,3-3.5a83.34,83.34,0,0,1,6.53-6.37c2.26-2,4.61-3.88,7-5.67,1.21-.87,2.44-1.74,3.68-2.58.63-.42,1.25-.84,1.9-1.25s1.26-.78,2-1.23Z" style="fill: rgb(255, 181, 115); transform-origin: 145.267px 249.405px;" id="elpexa7m47f0c" class="animable"></path><path d="M160.48,214.34c-5-.25-18.08,13.06-18.08,13.06l11.08,11.4s6.27-3.87,11.19-7.21C174.07,225.2,170.24,214.83,160.48,214.34Z" style="fill: rgb(67, 94, 190); transform-origin: 156.233px 226.568px;" id="elmzrg0jgwp4g" class="animable"></path><path d="M135,277l5.51,6.49-8.67,2s-4.55-6.62-.87-8.15Z" style="fill: rgb(255, 181, 115); transform-origin: 135.022px 281.245px;" id="el8b08i15de65" class="animable"></path><polygon points="139.56 291.35 132.79 291.25 131.85 285.48 140.52 283.51 139.56 291.35" style="fill: rgb(255, 181, 115); transform-origin: 136.185px 287.43px;" id="elnbqrboqeu4j" class="animable"></polygon></g><g id="freepik--social-media-icons--inject-99" class="animable animator-active" style="transform-origin: 216.637px 128.068px;"><path d="M174,143.15a12.3,12.3,0,1,1,18.33-1.06c.83.65,1.63,1.31,2.43,2,1.14,1,2.27,2,3.38,3s2.2,2.05,3.28,3.09c.54.52,1.07,1.06,1.6,1.58a2.79,2.79,0,0,1,.68.91,2.23,2.23,0,0,1,.2.6,2.44,2.44,0,0,1,.06.74,1.9,1.9,0,0,1-1.73,1.74,2.51,2.51,0,0,1-.75-.06,2.56,2.56,0,0,1-.59-.2,2.86,2.86,0,0,1-.91-.68c-.53-.54-1.06-1.06-1.58-1.61-1.05-1.07-2.08-2.17-3.1-3.27s-2-2.24-3-3.39c-.67-.79-1.34-1.6-2-2.42A12.31,12.31,0,0,1,174,143.15Zm14.35-3.05a8,8,0,1,0-11.31,0A8,8,0,0,0,188.35,140.1Z" style="fill: rgb(38, 50, 56); transform-origin: 187.179px 138.952px;" id="ela6gy1ql1b9" class="animable"></path><path d="M245.05,87.1a.79.79,0,0,0-.68-.67,13.7,13.7,0,0,0-5.53.7,12.18,12.18,0,0,0-7.71,15.39c1.41,4.26,5,5.54,7.82,4.6a7.85,7.85,0,0,0,5.09-4.94,4.11,4.11,0,0,0,4.9,1.62c4.4-1.46,7.53-6.93,5-14.54-2.73-8.19-10.39-12-18.64-9.26-9.91,3.3-14.77,13.63-11.31,24,2.88,8.67,11.09,12.93,19.53,10.13a18.21,18.21,0,0,0,7.83-4.72.78.78,0,0,0,0-1L250,106.69a.78.78,0,0,0-1.18,0,14.25,14.25,0,0,1-6,3.67c-6.57,2.19-12.53-1-14.83-7.92-2.77-8.34.66-16.21,8.16-18.7,6.35-2.11,11.64.64,13.82,7.19,1,2.87,1,5.57,0,7.41a3,3,0,0,1-1.64,1.58.74.74,0,0,1-.68-.06c-.36-.24-1-1.06-1.39-3.95Zm-5.47,4.11a8.18,8.18,0,0,1,1.47-.34l.66,4.75c.4,2.73-.81,6.47-3,7.19-2,.66-2.83-1-3.17-2C234.21,96.79,236.06,92.38,239.58,91.21Z" style="fill: rgb(38, 50, 56); transform-origin: 238.862px 97.0521px;" id="elk75rzk6edn" class="animable"></path><path d="M191.4,71.86c-3.26-2.38-4.71-6.56-5.21-8.41a1.2,1.2,0,0,0-2.23-.22v0a6.68,6.68,0,0,0-.26,4.16.73.73,0,0,1-1,.85l-.62-.25a8.61,8.61,0,0,0-2.74-.63l-.71-.05a2.67,2.67,0,0,0-2.83,2.41l-.45,4.83a5.7,5.7,0,0,0,.08,1.7,5.9,5.9,0,0,0,4.67,4.62c2.46.46,6.28,1.19,6.95,1.3h0l1.71.43,4-9.81Z" style="fill: rgb(67, 94, 190); transform-origin: 184.04px 72.5838px;" id="ely9aa63pgtu" class="animable"></path><g id="elz2rdx0xdwq"><path d="M191.4,71.86c-3.26-2.38-4.71-6.56-5.21-8.41a1.2,1.2,0,0,0-2.23-.22v0a6.68,6.68,0,0,0-.26,4.16.73.73,0,0,1-1,.85l-.62-.25a8.61,8.61,0,0,0-2.74-.63l-.71-.05a2.67,2.67,0,0,0-2.83,2.41l-.45,4.83a5.7,5.7,0,0,0,.08,1.7,5.9,5.9,0,0,0,4.67,4.62c2.46.46,6.28,1.19,6.95,1.3h0l1.71.43,4-9.81Z" style="fill: rgb(255, 255, 255); opacity: 0.7; transform-origin: 184.04px 72.5838px;" class="animable"></path></g><path d="M194.18,86.67l-5.65-2.5a1.28,1.28,0,0,1-.69-1.59l3.79-11a1.27,1.27,0,0,1,1.51-.82l6,1.46a1.28,1.28,0,0,1,.9,1.67l-4.14,12A1.28,1.28,0,0,1,194.18,86.67Z" style="fill: rgb(67, 94, 190); transform-origin: 193.941px 78.7475px;" id="eldlmhw2idrd7" class="animable"></path><path d="M143.78,87.91l-27,3.53a5.24,5.24,0,0,0-4.5,5.85l1.82,14a5.24,5.24,0,0,0,5.85,4.5l19.85-2.6.49,4.91,4.37-5.54,2.34-.31a5.24,5.24,0,0,0,4.5-5.85l-1.83-14A5.24,5.24,0,0,0,143.78,87.91ZM116.9,97.47a1.45,1.45,0,0,1,1.26-1.63l6.22-.82a1.45,1.45,0,0,1,.38,2.88l-6.23.81A1.45,1.45,0,0,1,116.9,97.47Zm27.89,10.11L134,109a1.44,1.44,0,0,1-.37-2.86l10.76-1.4a1.44,1.44,0,1,1,.38,2.86Zm-.79-6-23.23,3a1.44,1.44,0,1,1-.37-2.86l23.23-3a1.44,1.44,0,1,1,.37,2.85Zm-.79-6-13.75,1.8a1.45,1.45,0,0,1-.38-2.88l13.75-1.79a1.45,1.45,0,0,1,.38,2.87Z" style="fill: rgb(67, 94, 190); transform-origin: 131.89px 102.982px;" id="elq0nk40ipm2r" class="animable"></path><path d="M262,153.38l-35.95,5.68a6.16,6.16,0,0,0-5.11,7l3.52,22.33a6.16,6.16,0,0,0,7,5.11l35.95-5.67a6.16,6.16,0,0,0,5.11-7L269,158.5A6.17,6.17,0,0,0,262,153.38Zm-19.44,30-2.86-18.1,17.1,6.57Z" style="fill: rgb(67, 94, 190); transform-origin: 246.73px 173.441px;" id="el3g68nplzinw" class="animable"></path><g id="elu5utbj0phig"><path d="M262,153.38l-35.95,5.68a6.16,6.16,0,0,0-5.11,7l3.52,22.33a6.16,6.16,0,0,0,7,5.11l35.95-5.67a6.16,6.16,0,0,0,5.11-7L269,158.5A6.17,6.17,0,0,0,262,153.38Zm-19.44,30-2.86-18.1,17.1,6.57Z" style="fill: rgb(255, 255, 255); opacity: 0.5; transform-origin: 246.73px 173.441px;" class="animable"></path></g><path d="M304.93,118.85A19.53,19.53,0,0,0,293.79,156l3.4,6.37,5.38-4.81h0a19.53,19.53,0,0,0,2.35-38.73Z" style="fill: rgb(67, 94, 190); transform-origin: 301.542px 140.465px;" id="elnwmrhmiewq" class="animable"></path><g id="elj4px41vgph"><path d="M299.15,151.37a13.5,13.5,0,1,1,15.65-10.93A13.49,13.49,0,0,1,299.15,151.37Z" style="fill: rgb(255, 255, 255); opacity: 0.3; transform-origin: 301.508px 138.078px;" class="animable"></path></g></g><defs>     <filter id="active" height="200%">         <feMorphology in="SourceAlpha" result="DILATED" operator="dilate" radius="2"></feMorphology>                <feFlood flood-color="#32DFEC" flood-opacity="1" result="PINK"></feFlood>        <feComposite in="PINK" in2="DILATED" operator="in" result="OUTLINE"></feComposite>        <feMerge>            <feMergeNode in="OUTLINE"></feMergeNode>            <feMergeNode in="SourceGraphic"></feMergeNode>        </feMerge>    </filter>    <filter id="hover" height="200%">        <feMorphology in="SourceAlpha" result="DILATED" operator="dilate" radius="2"></feMorphology>                <feFlood flood-color="#ff0000" flood-opacity="0.5" result="PINK"></feFlood>        <feComposite in="PINK" in2="DILATED" operator="in" result="OUTLINE"></feComposite>        <feMerge>            <feMergeNode in="OUTLINE"></feMergeNode>            <feMergeNode in="SourceGraphic"></feMergeNode>        </feMerge>            <feColorMatrix type="matrix" values="0   0   0   0   0                0   1   0   0   0                0   0   0   0   0                0   0   0   1   0 "></feColorMatrix>    </filter></defs><defs><clipPath id="freepik--clip-path--inject-99"><path d="M302.37,409.72a7.75,7.75,0,0,0,8.27-5.05l68.71-203.79a5.23,5.23,0,0,0-4.19-7.08L267.29,176.24a7.76,7.76,0,0,0-8.28,5l-68.7,203.79a5.22,5.22,0,0,0,4.18,7.08Z" style="fill:none"></path></clipPath></defs></svg>